<?xml version="1.0" standalone="no"?>
<!DOCTYPE svg PUBLIC "-//W3C//DTD SVG 1.1//EN" "http://www.w3.org/Graphics/SVG/1.1/DTD/svg11.dtd" >
<svg xmlns="http://www.w3.org/2000/svg">
<metadata>Generated by IcoMoon</metadata>
<defs>
<font id="tmo-icons" horiz-adv-x="1024">
<font-face units-per-em="1024" ascent="960" descent="-64" />
<missing-glyph horiz-adv-x="1024" />
<glyph unicode="&#x20;" horiz-adv-x="512" d="" />
<glyph unicode="&#xe900;" glyph-name="fail-icon" d="M511.972 957.042c-281.088 0-509.013-227.897-509.013-509.042 0-281.102 227.925-509.042 509.013-509.042 281.145 0 509.056 227.925 509.056 509.042 0.014 281.131-227.911 509.042-509.056 509.042zM511.972-12.999c-254.606 0-461.042 206.407-461.042 461.013 0 254.62 206.436 461.070 461.042 461.070 254.635 0 461.042-206.45 461.042-461.070 0.014-254.62-206.407-461.013-461.042-461.013zM508.686 383.702l-178.489-178.489-64.1 64.128 178.489 178.503-178.503 178.475 64.114 64.128 178.489-178.503 178.517 178.503 64.114-64.1-178.503-178.503 178.489-178.517-64.128-64.114z" />
<glyph unicode="&#xe901;" glyph-name="LTE-icon" d="M511.972 960.014c-282.724 0-511.972-229.234-511.972-512 0-282.752 229.248-512.028 511.972-512.028 282.78 0 512.028 229.276 512.028 512.028 0 282.766-229.248 512-512.028 512zM511.972-15.687c-256.085 0-463.716 207.588-463.716 463.701 0 256.085 207.644 463.73 463.716 463.73 256.128 0 463.744-207.659 463.744-463.73 0.014-256.114-207.616-463.701-463.744-463.701zM203.193 588.374h57.273v-226.802h135.836v-51.47h-193.109v278.272zM453.063 538.852h-82.446v49.522h221.781v-49.522h-82.062v-228.75h-57.273v228.75zM625.309 588.374h202.027v-48.384h-145.508v-59.193h133.134v-47.63h-133.134v-71.595h152.491v-51.47h-209.010v278.272z" />
<glyph unicode="&#xe902;" glyph-name="check-icon" d="M511.972 960c-282.724 0-511.972-229.234-511.972-512 0-282.724 229.248-512 511.972-512 282.766 0 512.028 229.276 512.028 512 0 282.766-229.262 512-512.028 512zM511.972-15.673c-256.085 0-463.73 207.588-463.73 463.673 0 256.1 207.659 463.744 463.73 463.744 256.114 0 463.73-207.644 463.73-463.744 0-256.085-207.616-463.673-463.73-463.673zM473.956 320.64l-100.708 178.588-84.807-34.389 150.443-273.564h75.15l236.572 470.585-84.821 36.309z" />
<glyph unicode="&#xe903;" glyph-name="jump-on-demand-logo" horiz-adv-x="2091" d="M0.341 453.376c17.326-3.457 31.194-6.102 42.46-6.102 28.592 0 48.52 15.619 57.225 47.667 4.309 14.765 6.913 48.563 6.913 99.643v346.722h123.924v-358.756c0-47.708-3.457-84.109-9.559-110.055-19.928-82.402-75.404-123.113-166.341-123.113-16.515 0-34.651 1.75-54.622 6.102v97.893zM1413.046 941.304h182.898c45.874 0 80.609-4.353 104.848-13.016 35.505-13.016 62.431-35.546 82.318-67.595 16.471-27.737 24.28-60.682 24.28-100.496 0-65.888-23.428-117.010-70.198-152.516-32.944-24.28-78.903-37.297-138.731-37.297h-61.493v-207.094h-123.924v578.012zM1596.799 670.926c32.901 0 56.329 7.809 68.491 23.385 12.077 15.619 18.179 35.546 18.179 59.786 0 28.592-8.663 49.416-25.989 64.138-13.016 11.266-35.546 16.471-66.699 16.471h-53.768v-163.782h59.786zM656.66 941.304h-50.525v-336.266c0-47.624-5.206-81.464-13.826-103.141-13.911-31.151-38.193-46.812-75.404-46.812-33.84 0-58.974 11.308-74.551 34.651-15.619 20.867-23.428 59.829-23.428 114.451v337.121h-118.718v-328.457c0-38.961 1.707-69.302 5.164-90.979 5.206-34.651 15.619-64.138 31.194-88.419 35.546-56.285 95.375-84.066 178.546-84.066 54.579 0 99.685 12.119 133.483 35.59 33.797 24.196 57.225 59.742 70.24 108.305 7.809 26.885 11.266 65.888 11.266 117.864v125.033h-80.396l118.462 205.131h-111.506zM1177.361 941.304l-100.539-396.010-102.289 396.010h-206.368l38.065-65.93h0.172v-0.299l80.226-138.902h-80.226v-174.449c0-0.043 0-0.043 0-0.085v-198.346h118.718l-0.213 1.835c0.085-0.043 0.172-0.085 0.213-0.128v395.199l100.496-396.906h100.539l98.832 401.216v-401.216h118.675v578.012h-166.299zM1973.178 945.699h-123.967l17.027-404.971h91.108l15.831 404.971zM1911.217 476.975c-35.59 0-64.437-28.805-64.437-64.351 0-35.59 28.848-64.394 64.437-64.394 35.505 0 64.351 28.805 64.351 64.394 0 35.546-28.848 64.351-64.351 64.351zM2015.98 225.756h-13.442v8.877h36.913v-8.877h-13.314v-43.313h-10.156v43.313zM2043.889 234.632h12.887l10.882-37.041 10.412 37.041h12.93v-52.189h-9.687v34.309l-9.431-34.309h-8.449l-9.901 34.011v-34.011h-9.645v52.189zM194.164 204.292c22.191-27.609 33.456-63.583 33.456-107.964 0-38.449-8.79-71.094-25.945-97.467-10.029-15.917-23.001-28.037-38.875-36.442-15.106-7.98-31.408-12.119-48.946-12.119-18.392 0-35.121 4.182-50.227 12.589-15.49 8.278-28.464 20.44-38.492 36.784-16.771 25.519-25.135 57.694-25.135 96.187 0 45.276 10.882 81.208 32.645 107.196 21.336 26.372 48.946 39.345 82.829 39.345 31.365-0.043 57.78-12.631 78.689-38.107zM64.907 174.548c-12.589-19.673-18.819-45.618-18.819-77.452 0-30.938 5.42-56.884 17.112-76.556 5.846-10.412 14.21-18.776 25.135-24.665 7.937-4.182 16.727-6.273 25.861-6.273 9.26 0 18.051 2.133 25.989 6.7 8.321 4.224 15.021 10.455 20.44 18.435 13.826 20.483 20.952 47.708 20.952 81.592 0 31.835-6.273 57.78-18.435 77.409-12.119 19.63-28.889 29.316-50.227 29.316-20.056-0.043-35.931-9.687-48.008-28.506zM257.322 236.083h47.283l103.782-207.137v207.137h42.674v-279.127h-47.708l-103.355 205.899v-205.899h-42.674v279.127zM582.92 236.083h85.773c36.827 0 65.247-10.455 84.109-31.408 22.574-24.665 33.925-60.212 33.925-106.257 0-53.982-14.679-94.138-43.911-119.699-11.351-9.601-24.28-16.302-38.918-19.246-8.79-1.664-19.673-2.517-33.073-2.517h-87.907v279.127zM664.511-4.553c14.637 0 25.519 1.237 32.645 4.224 13.783 5.42 24.665 16.727 32.645 34.736 7.553 16.727 10.882 38.022 10.882 63.968 0 35.59-7.511 61.962-23.855 79.116-7.126 7.553-15.106 12.973-24.28 15.875-7.084 2.944-16.302 4.224-27.609 4.224h-35.973v-202.102h35.546zM816.899 236.083h168.134v-39.771h-122.132v-75.361h112.957v-39.73h-112.957v-84.963h124.222v-39.345h-170.224v279.17zM1029.028 236.083h61.449l62.346-217.592 60.255 217.592h61.918v-279.127h-42.674v220.536l-59.786-220.536h-38.492l-62.346 217.975v-217.975h-42.674v279.127zM1440.358 236.083l89.53-279.127h-48.093l-21.763 74.935h-88.292l-21.763-74.935h-47.283l89.955 279.127h47.708zM1449.148 68.717l-33.073 112.53-33.456-112.53h66.527zM1557.966 236.083h47.239l103.782-207.137v207.137h42.674v-279.127h-47.667l-103.355 205.899v-205.899h-42.674v279.127zM1786.012 236.083h85.817c36.827 0 65.247-10.455 84.109-31.408 22.574-24.665 33.883-60.212 33.883-106.257 0-53.982-14.637-94.138-43.911-119.699-11.308-9.601-24.28-16.302-38.918-19.246-8.79-1.664-19.673-2.517-33.029-2.517h-87.907v279.127zM1867.647-4.553c14.637 0 25.476 1.237 32.602 4.224 13.826 5.42 24.708 16.727 32.688 34.736 7.511 16.727 10.839 38.022 10.839 63.968 0 35.59-7.511 61.962-23.855 79.116-7.084 7.553-15.064 12.973-24.239 15.875-7.126 2.944-16.302 4.224-27.609 4.224h-35.973v-202.102h35.546z" />
<glyph unicode="&#xe904;" glyph-name="jump-logo" horiz-adv-x="3413" d="M13.896 116.122c29.696-5.871 53.385-10.377 72.704-10.377 48.947 0 83.217 26.829 98.099 81.783 7.441 25.122 11.947 83.149 11.947 170.803v594.125h212.378v-615.014c0-81.579-5.939-144.111-16.384-188.621-34.065-140.971-129.229-210.876-285.15-210.876-28.262 0-59.392 2.935-93.594 10.377v167.799zM2435.178 952.457h313.344c78.711 0 138.103-7.578 179.678-22.391 61.030-22.187 106.974-60.894 141.107-115.917 28.262-47.514 41.574-103.834 41.574-172.237 0-112.845-40.141-200.567-120.354-261.325-56.388-41.711-135.1-64.034-237.5-64.034h-105.54v-354.918h-212.309v990.822zM2750.024 489.063c56.388 0 96.597 13.244 117.282 40.073 20.821 26.692 31.266 60.894 31.266 102.537 0 48.947-15.019 84.514-44.578 109.841-22.391 19.319-60.894 28.194-114.415 28.194h-92.092v-280.644h102.537zM1138.726 952.457h-86.562v-576.444c0-81.579-8.943-139.537-23.825-176.674-23.757-53.385-65.263-80.35-129.229-80.35-57.958 0-100.966 19.319-127.727 59.46-26.829 35.703-40.141 102.4-40.141 196.13v577.877h-203.435v-563.063c0-66.833 2.935-118.784 8.875-155.853 8.875-59.597 26.897-109.841 53.521-151.62 60.962-96.461 163.362-143.974 305.971-143.974 93.525 0 170.803 20.821 228.693 60.826 58.027 41.574 98.167 102.605 120.354 185.754 13.38 46.012 19.388 112.777 19.388 202.069v214.221h-137.967l203.025 351.642h-190.942zM2031.108 952.457l-172.51-678.912-175.104 678.912h-353.826l65.399-113.050h0.205v-0.546l137.489-238.046h-137.489v-639.113h203.503l-0.341 3.209 0.341-0.273v677.274l172.373-680.209h172.305l169.233 687.718v-687.718h203.571v990.754zM3395.007 959.966h-212.514l29.286-693.999h156.194zM3399.103 46.353c0-60.927-49.391-110.319-110.319-110.319s-110.319 49.391-110.319 110.319c0 60.927 49.391 110.319 110.319 110.319s110.319-49.391 110.319-110.319z" />
<glyph unicode="&#xe905;" glyph-name="call-icon" d="M444.952 541.31l-124.802 123.715c-24.828-26.435-97.737-92.727 112.356-300.946 211.086-209.132 273.676-136.192 301.828-109.473l-124.707 123.542c-39.999-39.873-203.114 121.888-164.675 163.163zM380.412 725.606l122.899-121.792-37.515-37.856-122.899 121.792 37.515 37.856zM757.033 277.442l-122.923 121.746 37.448 37.81 122.923-121.746-37.448-37.81zM374.532 224.957c-43.386 31.177-102.81 73.76-181.185-17.975l36.832-31.445c49.451 57.943 73.145 40.928 116.137 10.13 24.938-17.881 54.76-39.29 90.931-39.29 32.122 0 69.317 16.888 112.577 67.994l-36.959 31.256c-63.11-74.642-93.058-53.106-138.335-20.669zM512 960c-282.75 0-512-229.218-512-512 0-282.734 229.25-512 512-512 282.734 0 512 229.266 512 512 0 282.782-229.266 512-512 512zM512-15.699c-256.095 0-463.762 207.636-463.762 463.699 0 256.079 207.667 463.746 463.762 463.746 256.126 0 463.73-207.667 463.73-463.746 0-256.063-207.604-463.699-463.73-463.699z" />
<glyph unicode="&#xe906;" glyph-name="phone-icon" d="M630.335 756.444h-243.476c-39.448 0-73.24-31.13-73.24-70.577v-475.672c0-39.511 33.792-73.098 73.24-73.098h243.476c39.448 0 70.388 33.587 70.388 73.098v475.672c0 39.448-30.941 70.577-70.388 70.577zM440.911 717.737h135.389c4.191 0 7.546-5.53 7.546-9.657 0-4.191-3.356-9.704-7.546-9.704h-135.389c-4.159 0-7.53 5.514-7.53 9.704 0 4.128 3.371 9.657 7.53 9.657zM508.81 157.877c-15.959 0-28.83 12.792-28.83 28.782 0 15.927 12.871 28.83 28.83 28.83 15.864 0 28.83-12.902 28.83-28.83 0-15.99-12.95-28.782-28.83-28.782zM671.689 238.159c0-2.363-1.938-4.269-4.285-4.269h-320.465c-2.347 0-4.285 1.906-4.285 4.269v417.225c0 2.363 1.938 4.285 4.285 4.285h320.465c2.347 0 4.285-1.922 4.285-4.285v-417.225zM511.992 960c-282.719 0-511.984-229.234-511.984-512 0-282.75 229.266-512 511.984-512 282.766 0 512 229.266 512 512 0 282.766-229.234 512-512 512zM511.992-15.683c-256.095 0-463.746 207.604-463.746 463.683 0 256.095 207.651 463.746 463.746 463.746 256.11 0 463.714-207.651 463.714-463.746 0-256.079-207.604-463.683-463.714-463.683z" />
<glyph unicode="&#xe907;" glyph-name="score-logo" horiz-adv-x="3066" d="M1405.545 759.091c-76.186-1.502-138.172-29.901-185.207-85.333-48.742-58.163-72.567-137.557-70.588-237.363 1.638-85.265 22.050-154.761 62.191-210.193 49.493-68.881 117.282-101.99 202.479-100.352 40.823 0.819 77.824 10.581 111.957 28.467 33.178 18.022 60.826 43.895 82.876 77.073 38.775 58.709 57.344 130.799 55.637 216.132-1.98 99.669-29.901 179.063-83.627 236.954-47.241 50.859-105.882 75.981-175.718 74.615zM1500.982 290.987c-9.626-16.589-22.050-29.491-38.298-39.799-15.223-9.353-32.358-14.199-49.63-14.609-17.135-0.273-32.7 3.004-48.333 10.923-21.026 10.377-36.796 25.463-48.060 43.486-23.484 39.458-36.25 89.975-37.41 149.845-1.161 58.095 9.694 108.203 32.427 149.436 21.026 37.615 51.473 57.276 90.453 58.095 40.823 0.819 72.909-17.613 95.437-54.34 24.371-39.458 36.25-89.156 37.342-148.070 1.434-61.713-10.24-113.732-33.929-154.965zM960.72 271.735c-17.613-29.491-43.759-44.51-77.414-45.261-39.185-0.819-69.564 16.862-91.204 53.726-22.733 39.663-35.499 90.385-36.659 150.46-1.161 59.187 8.738 109.5 29.901 149.982 20.139 38.639 50.722 58.3 91.682 59.119 35.499 0.683 64.034-16.043 82.944-48.401 9.353-14.404 16.111-33.382 20.139-56.934l129.297 2.526c-4.506 45.466-18.91 85.197-45.124 121.105-45.943 63.693-108.476 94.276-187.665 92.774-74.615-1.434-135.031-30.857-180.361-87.313-48.947-61.099-72.909-139.878-70.997-236.407 1.98-99.191 29.969-178.79 83.081-239.684 44.646-49.152 103.424-73.523 177.152-72.090 78.234 1.502 137.762 31.881 179.405 91.955 30.993 44.237 48.196 98.304 51.473 162.133l-130.185-2.526c-3.755-40.141-12.288-72.158-25.463-95.164zM545.249 428.885c-27.58 22.187-67.925 40.414-118.989 55.774-44.783 13.653-74.001 25.737-88.747 35.499-20.275 14.131-30.652 32.017-31.061 54.682-0.41 20.002 5.666 35.567 19.046 46.694 10.718 10.172 26.965 15.087 46.899 15.497 24.439 0.478 43.622-4.574 57.481-16.998 12.015-10.65 19.593-27.785 23.689-50.381l126.089 2.458c-6.212 38.912-18.569 70.383-36.386 94.549-39.117 50.927-95.778 76.186-172.032 74.615-59.87-1.161-107.657-19.319-140.561-53.521-30.174-30.583-44.783-70.793-43.895-118.852 1.092-57.139 23.757-102.059 68.881-135.714 22.118-17.681 58.778-34.202 108.134-50.517 26.419-8.533 41.097-13.653 45.67-15.36 13.653-6.212 26.556-12.22 35.772-20.275 20.275-15.838 30.583-35.635 31.061-58.3 0.41-20.89-5.598-38.298-18.022-52.019-13.312-15.77-33.041-24.303-59.392-24.849-29.013-0.614-51.063 10.718-66.97 34.065-7.441 10.718-13.244 28.809-17.271 52.292l-130.662-2.594c5.325-38.912 17.749-73.114 38.298-102.741 39.253-58.163 98.782-86.084 176.811-84.514 65.399 1.297 117.692 19.593 155.921 55.706 37.478 35.157 55.637 80.009 54.545 135.373-1.092 54.477-22.869 98.509-64.307 129.434zM2140.845 240.401c-4.642 50.654-7.919 80.691-9.967 90.59-4.233 27.17-10.991 47.923-20.343 62.327-14.063 22.391-33.382 37.41-58.095 45.124 18.842 9.421 34.065 21.504 45.602 35.362 26.624 31.403 39.458 70.724 38.571 116.122-1.024 56.32-20.958 98.645-59.597 128.751-34.202 25.668-81.579 38.366-142.473 37.137l-232.448-4.574 11.878-605.662 129.911 2.526-4.71 237.909 74.411 1.434c30.857 0.614 52.77-5.325 65.741-17.749 9.284-8.943 15.838-21.504 20.821-37.751 4.779-15.428 8.875-38.025 12.22-67.857 4.437-44.442 6.827-70.793 7.851-78.029 2.048-13.585 4.983-24.371 8.875-34.338l134.417 2.662c-5.666 8.943-9.421 16.043-11.401 21.504-4.71 10.923-8.738 32.7-11.264 64.512zM1989.293 511.693c-14.199-16.657-41.233-25.327-81.169-26.146l-70.793-1.434-3.345 166.229 73.523 1.434c31.744 0.614 53.589-3.482 66.56-11.401 21.231-14.131 32.495-36.591 33.109-68.335 0.478-25.463-5.53-45.602-17.886-60.348zM2324.961 267.912l-3.004 149.367 235.042 4.71-2.048 105.609-235.042-4.574-2.594 129.297 256.956 5.052-2.253 112.026-387.14-7.578 11.947-607.642 392.67 7.782-2.253 111.138zM2748.009 353.314l8.124 423.458-129.57-2.526 26.078-422.844zM2769.786 218.624c0-37.213-30.167-67.379-67.379-67.379s-67.379 30.167-67.379 67.379c0 37.213 30.167 67.379 67.379 67.379s67.379-30.167 67.379-67.379zM0.071 902.246l18.978-966.246 2935.74 57.685-19.046 966.315-2935.671-57.754zM85.063 4.676l-16.384 831.625 2800.981 55.023 16.452-831.625-2801.050-55.023zM2976.225 50.483h15.701v-41.574h6.349v41.574h15.497v5.325h-37.547zM3057.189 55.808l-14.677-39.458-14.814 39.458h-8.533v-46.899h5.939v38.98h0.137l14.473-38.98h5.393l14.677 38.98h0.205v-38.98h5.939v46.899z" />
<glyph unicode="&#xe908;" horiz-adv-x="6700" d="M1034.796 159.426c0-123.416-100.010-223.426-223.426-223.426h-577.058c-123.416 0-223.426 100.010-223.426 223.426v577.147c0 123.416 100.010 223.426 223.426 223.426h577.013c123.416 0 223.426-100.010 223.426-223.426v-577.147z" />
<glyph unicode="&#xe909;" horiz-adv-x="6700" d="M11.466 399.246c-14.785 40.335-13.043 79.999 33.099 96.839 42.032 15.455 66.152-6.298 85.27-40.245 4.869 57.085 38.995 91.523 92.774 111.177 55.432 20.279 103.807 13.132 143.561-30.463 16.572 64.232 44.667 99.34 105.192 121.451 30.24 11.122 64.098 14.919 94.918 6.164 62.802-18.001 86.61-67.358 107.202-123.729l77.498-211.813c14.16-38.637 8.397-75.041-35.287-90.943-49.536-18.224-73.835 9.112-89.558 51.948l-68.564 187.424c-15.053 41.139-44.533 69.458-90.719 52.618-52.976-19.43-53.065-63.249-36.806-107.827l67.671-185.012c14.785-40.201 8.71-75.756-35.779-92.060-48.777-17.912-75.175 12.418-90.183 53.735l-62.758 171.299c-16.259 44.578-42.121 86.61-96.794 66.599-55.477-20.234-46.677-78.034-30.418-122.657l62.4-170.585c14.428-39.397 8.397-75.041-36.136-91.3-43.729-15.991-72.406 7.906-86.878 47.303l-109.703 300.076z" />
<glyph unicode="&#xe90a;" horiz-adv-x="6700" d="M932.508 508.145l-12.418 246.966c-1.563 32.563 4.913 61.15 39.665 72.942 33.099 11.078 67.939-2.635 79.642-37.431 4.601-13.534 5.181-26.532 5.271-40.737l-2.68-381.415c-0.849-98.492-1.161-170.361-111.4-207.525-40.737-13.758-91.613-19.564-107.961 28.81-10.274 30.508 5.762 58.514 35.421 68.564 14.428 4.869 28.587 4.869 41.317 9.246 22.87 7.638 32.116 27.783 34.885 53.288l-242.723 308.205c-8.487 11.256-17.286 23.406-21.887 36.985-12.016 35.6 10.229 67.626 44.176 79.017 42.389 14.338 66.286-14.383 88.709-47.392l129.982-189.524z" />
<glyph unicode="&#xe90b;" horiz-adv-x="6700" d="M1387.937 466.291h173.399v-171.567h-173.399v171.567z" />
<glyph unicode="&#xe90c;" horiz-adv-x="6700" d="M1914.163 466.291h173.354v-171.567h-173.354v171.567z" />
<glyph unicode="&#xe90d;" horiz-adv-x="6700" d="M2434.405 466.291h173.309v-171.567h-173.309v171.567z" />
<glyph unicode="&#xe90e;" horiz-adv-x="6700" d="M2954.556 466.291h173.354v-171.567h-173.354v171.567z" />
<glyph unicode="&#xe90f;" horiz-adv-x="6700" d="M3606.030 9.255l219.272 742.685v-583.49c0-63.651-3.707-86.923-18.537-101.663-11.256-10.988-37.163-18.403-65.706-18.403h-11.167v-39.129h309.768v39.129h-16.125c-28.453 0-54.539 7.415-65.572 18.403-15.008 14.74-18.626 38.012-18.626 101.663v498.89c0 63.785 3.618 87.057 18.626 101.663 12.239 11.122 37.119 18.492 65.572 18.492h16.125v39.263h-240.4l-180.858-601.759-177.106 601.759h-239.149v-39.218h22.378c65.706 0 78.034-14.74 78.034-96.928v-474.234c0-76.069-3.707-105.549-14.874-128.731-12.373-23.316-38.414-39.218-65.616-39.218h-19.966v-39.129h255.229v39.129h-16.036c-32.25 0-58.202 13.534-73.031 38.057-14.874 24.388-18.626 46.543-18.626 129.937v535.517l218.022-742.685h38.369z" />
<glyph unicode="&#xe910;" horiz-adv-x="6700" d="M4300.832 550.891c44.578 0 82.903-26.934 103.941-73.523 19.788-42.925 28.498-101.752 28.498-186.263 0-174.024-43.238-259.875-131.233-259.875s-130.027 85.806-130.027 262.242c0 82.188 8.576 139.809 28.453 183.94 19.832 43.997 59.318 73.478 100.368 73.478zM4305.745 590.154c-153.611 0-254.023-117.699-254.023-300.344 0-177.687 100.368-297.798 250.316-297.798 151.065 0 251.433 120.155 251.433 299.093 0 177.732-100.368 299.048-247.725 299.048z" />
<glyph unicode="&#xe911;" horiz-adv-x="6700" d="M4887.94 542.315c79.24 0 120.155-83.349 120.155-245.224 0-169.066-41.987-257.329-122.612-257.329-89.379 0-136.37 89.424-136.37 253.666 0 80.937 11.167 138.514 37.253 181.439 23.406 41.719 63.115 67.448 101.574 67.448zM4759.030 835.289l-175.9-8.531v-38.101h8.755c52.038 0 63.16-17.018 63.16-98v-560.084c0-71.155-2.501-90.764-12.373-121.317h40.826c30.91 48.955 38.414 57.532 50.831 57.532 6.253 0 12.373-2.501 21.128-9.782 60.658-48.955 86.565-60.078 142.4-60.078 133.69 0 230.35 127.481 230.35 305.212 0 169.111-89.201 283.191-222.935 283.191-69.413 0-120.2-31.982-146.196-92.015v341.974z" />
<glyph unicode="&#xe912;" horiz-adv-x="6700" d="M5297.942 832.787c-38.235 0-69.234-29.391-69.234-67.403 0-36.806 30.955-67.403 68.073-67.403 38.369 0 68.028 29.391 68.028 67.403 0.045 36.806-29.614 67.403-66.867 67.403zM5357.305 581.578l-180.769-8.531v-38.146h13.713c51.993 0 63.204-17.152 63.204-97.911v-290.561c0-80.803-11.212-99.34-63.204-99.34h-19.832v-37.833h270.148v37.833h-20.011c-51.904 0-63.204 17.197-63.204 99.34v435.15z" />
<glyph unicode="&#xe913;" horiz-adv-x="6700" d="M5670.736 835.289l-180.858-8.531v-38.101h13.579c51.993 0 63.204-17.018 63.204-98v-544.228c0-82.143-11.212-99.34-63.204-99.34h-19.922v-37.833h270.148v37.833h-19.832c-51.993 0-63.070 17.197-63.070 99.34v688.861z" />
<glyph unicode="&#xe914;" horiz-adv-x="6700" d="M5908.59 337.649c1.251 128.642 44.623 209.579 113.991 209.579s110.284-78.391 108.988-209.579h-222.98zM6246.767 294.724c-6.209 181.439-95.454 295.43-230.484 295.43-129.937 0-224.186-123.863-224.186-295.43 0-185.191 92.953-302.711 236.603-302.711 92.908 0 157.274 47.794 210.607 154.415l-37.208 19.609c-43.372-90.764-86.61-126.23-153.567-126.23-97.866 0-139.943 76.024-141.194 254.961h339.428z" />
<glyph unicode="&#xe915;" horiz-adv-x="6700" d="M6394.259 466.291h173.443v-171.567h-173.443v171.567z" />
<glyph unicode="&#xe916;" horiz-adv-x="6700" d="M6631.398 578.183h7.683c8.085 0 12.016-3.082 12.016-9.246 0-6.566-4.288-9.737-12.775-9.737h-6.879v18.984zM6651.007 551.517c8.621 3.395 12.998 9.38 12.998 17.733 0 6.030-2.457 11.078-6.923 14.562-4.735 3.618-10.631 5.449-17.733 5.449h-21.44v-67.85h13.579v27.024h7.683l17.956-27.024h15.098l-21.217 30.106zM6595.351 599.579c-12.284-12.284-18.492-26.979-18.492-44.221s6.209-32.161 18.492-44.399c12.462-12.418 27.247-18.448 44.757-18.448 17.465 0 32.25 6.030 44.667 18.448 12.328 12.239 18.537 27.158 18.537 44.399 0 17.152-6.253 31.848-18.582 43.908-12.418 12.194-27.202 18.403-44.667 18.403-17.465 0.045-32.473-6.119-44.712-18.090zM6603.391 518.865c-10.184 10.005-15.053 22.11-15.053 36.27 0 14.115 4.913 26.175 15.187 36.136 10.139 10.139 22.11 15.098 36.538 15.098 14.115 0 26.443-5.003 36.493-15.098 10.229-9.961 15.321-22.021 15.321-36.136 0-14.16-5.047-26.264-15.321-36.181-10.095-10.139-22.378-15.053-36.493-15.053-14.472 0-26.666 4.913-36.672 14.964z" />
<glyph unicode="&#xe917;" horiz-adv-x="6700" d="M1805.309 816.886c141.328-2.457 225.436-95.633 237.899-265.994l45.784 7.325-8.665 299.138h-683.768l-8.665-299.138 45.918-7.325c12.284 170.361 95.365 263.538 237.809 265.994v-626.282c0-114.125-19.832-132.394-143.74-133.645v-47.705h421.258v47.705c-123.907 1.251-143.74 19.52-143.74 133.645v626.282z" />
</font>
</defs>
</svg>
